<?xml version="1.0" encoding="UTF-8"?>
<svg version="1.1" xmlns="http://www.w3.org/2000/svg" width="512" height="512">
<path d="M0 0 C0.73223547 -0.00320648 1.46447095 -0.00641296 2.21889538 -0.0097166 C4.66177426 -0.017989 7.10440619 -0.01210208 9.54728889 -0.00622082 C11.3207322 -0.00924276 13.09417421 -0.01313246 14.86761391 -0.01781338 C19.73293222 -0.02809658 24.59817686 -0.02591073 29.46350121 -0.02163279 C34.71377943 -0.01916616 39.96403988 -0.02817894 45.2143116 -0.03567028 C55.49702552 -0.04842099 65.77971333 -0.05021051 76.06243382 -0.04787002 C84.42028444 -0.04608714 92.77812713 -0.04783585 101.13597679 -0.05209446 C102.32541098 -0.05268965 103.51484516 -0.05328484 104.74032281 -0.05389806 C107.15664322 -0.05510981 109.57296364 -0.05632394 111.98928405 -0.05754044 C134.65062885 -0.06841738 157.31195877 -0.06625273 179.97330441 -0.06015559 C200.70420926 -0.05498613 221.43506712 -0.06624241 242.16596268 -0.08525381 C263.45344229 -0.10462596 284.74089966 -0.11288932 306.02838814 -0.10913056 C317.9792931 -0.10721759 329.93015806 -0.10971541 341.88105583 -0.1238451 C352.05478619 -0.1357519 362.22845193 -0.13717161 372.40218316 -0.12505493 C377.59225254 -0.1191614 382.7822037 -0.11808001 387.97226524 -0.13005733 C392.72566477 -0.14089944 397.47884711 -0.13783261 402.2322364 -0.12379565 C403.94952577 -0.12114413 405.66683206 -0.12352954 407.38410483 -0.13153151 C416.07611865 -0.16921447 424.15164941 -0.10917313 432.32808113 3.25447559 C433.38689643 3.68905229 433.38689643 3.68905229 434.46710193 4.13240832 C446.74513103 9.4736236 454.57687816 19.43537112 460.50386238 31.07478809 C462.76359871 37.05077326 463.5783015 42.55527932 463.58255672 48.92639446 C463.58736644 50.02474767 463.58736644 50.02474767 463.59227332 51.14528984 C463.60054573 53.58816872 463.5946588 56.03080066 463.58877754 58.47368336 C463.59179948 60.24712666 463.59568918 62.02056867 463.60037011 63.79400837 C463.6106533 68.65932668 463.60846746 73.52457132 463.60418952 78.38989568 C463.60172289 83.64017389 463.61073567 88.89043435 463.61822701 94.14070606 C463.63097771 104.42341998 463.63276724 114.70610779 463.63042674 124.98882829 C463.62864386 133.3466789 463.63039258 141.70452159 463.63465118 150.06237125 C463.63524637 151.25180544 463.63584156 152.44123962 463.63645479 153.66671727 C463.63766654 156.08303769 463.63888067 158.4993581 463.64009716 160.91567852 C463.65097411 183.57702331 463.64880946 206.23835323 463.64271232 228.89969887 C463.63754285 249.63060372 463.64879913 270.36146159 463.66781054 291.09235714 C463.68718269 312.37983675 463.69544604 333.66729412 463.69168729 354.95478261 C463.68977432 366.90568756 463.69227214 378.85655253 463.70640182 390.80745029 C463.71830863 400.98118065 463.71972834 411.15484639 463.70761166 421.32857762 C463.70171813 426.518647 463.70063673 431.70859816 463.71261406 436.89865971 C463.72345616 441.65205923 463.72038934 446.40524157 463.70635238 451.15863086 C463.70370085 452.87592023 463.70608626 454.59322653 463.71408824 456.3104993 C463.78181812 471.93318733 461.03018901 485.68633688 450.08589363 497.63338184 C439.99186964 506.94231508 428.44522029 512.49974158 414.65616226 512.50895119 C413.92392679 512.51215767 413.19169131 512.51536414 412.43726689 512.51866779 C409.994388 512.52694019 407.55175607 512.52105326 405.10887337 512.515172 C403.33543006 512.51819395 401.56198805 512.52208364 399.78854835 512.52676457 C394.92323004 512.53704776 390.0579854 512.53486192 385.19266105 512.53058398 C379.94238283 512.52811735 374.69212238 512.53713013 369.44185066 512.54462147 C359.15913674 512.55737217 348.87644893 512.5591617 338.59372844 512.5568212 C330.23587782 512.55503833 321.87803514 512.55678704 313.52018547 512.56104565 C312.33075129 512.56164084 311.1413171 512.56223602 309.91583946 512.56284925 C307.49951904 512.564061 305.08319862 512.56527513 302.66687821 512.56649163 C280.00553341 512.57736857 257.34420349 512.57520392 234.68285786 512.56910678 C213.951953 512.56393731 193.22109514 512.57519359 172.49019958 512.594205 C151.20271997 512.61357715 129.9152626 512.6218405 108.62777412 512.61808175 C96.67686916 512.61616878 84.7260042 512.6186666 72.77510643 512.63279629 C62.60137608 512.64470309 52.42771033 512.6461228 42.2539791 512.63400612 C37.06390972 512.62811259 31.87395856 512.62703119 26.68389702 512.63900852 C21.9304975 512.64985062 17.17731515 512.6467838 12.42392586 512.63274684 C10.7066365 512.63009532 8.9893302 512.63248073 7.27205743 512.6404827 C-8.35063061 512.70821258 -22.10378016 509.95658348 -34.05082512 499.01228809 C-43.35975836 488.9182641 -48.91718485 477.37161475 -48.92639446 463.58255672 C-48.92960094 462.85032125 -48.93280742 462.11808578 -48.93611106 461.36366135 C-48.94438346 458.92078247 -48.93849654 456.47815053 -48.93261528 454.03526783 C-48.93563722 452.26182452 -48.93952692 450.48838252 -48.94420785 448.71494281 C-48.95449104 443.84962451 -48.95230519 438.98437987 -48.94802725 434.11905551 C-48.94556063 428.86877729 -48.9545734 423.61851684 -48.96206474 418.36824512 C-48.97481545 408.08553121 -48.97660497 397.80284339 -48.97426448 387.5201229 C-48.9724816 379.16227229 -48.97423031 370.8044296 -48.97848892 362.44657993 C-48.97908411 361.25714575 -48.9796793 360.06771156 -48.98029253 358.84223392 C-48.98150427 356.4259135 -48.98271841 354.00959309 -48.9839349 351.59327267 C-48.99481184 328.93192787 -48.9926472 306.27059796 -48.98655006 283.60925232 C-48.98138059 262.87834747 -48.99263687 242.1474896 -49.01164827 221.41659404 C-49.03102043 200.12911444 -49.03928378 178.84165706 -49.03552502 157.55416858 C-49.03361206 145.60326363 -49.03610988 133.65239866 -49.05023956 121.70150089 C-49.06214636 111.52777054 -49.06356608 101.3541048 -49.0514494 91.18037356 C-49.04555587 85.99030418 -49.04447447 80.80035303 -49.0564518 75.61029148 C-49.0672939 70.85689196 -49.06422708 66.10370962 -49.05019011 61.35032032 C-49.04753859 59.63303096 -49.049924 57.91572466 -49.05792598 56.19845189 C-49.12565586 40.57576386 -46.37402675 26.8226143 -35.42973137 14.87556934 C-25.33570737 5.5666361 -13.78905803 0.00920961 0 0 Z M-15.67191887 35.25447559 C-21.73065483 43.29921052 -21.81976382 51.41231342 -21.78544426 61.12508106 C-21.78556479 62.22605688 -21.78568533 63.3270327 -21.78580952 64.46137142 C-21.78506488 68.01482274 -21.77745708 71.56822119 -21.76957512 75.12166309 C-21.76810431 77.31966088 -21.76708445 79.51765902 -21.76652336 81.71565723 C-21.76128659 89.85360204 -21.74732535 97.99153934 -21.73441887 106.12947559 C-21.71379387 124.32072559 -21.69316887 142.51197559 -21.67191887 161.25447559 C22.54808113 161.25447559 66.76808113 161.25447559 112.32808113 161.25447559 C112.32808113 117.03447559 112.32808113 72.81447559 112.32808113 27.25447559 C94.17808113 27.21322559 76.02808113 27.17197559 57.32808113 27.12947559 C51.60593269 27.11126759 45.88378426 27.09305958 39.98823738 27.07429981 C34.84041143 27.06760923 34.84041143 27.06760923 29.69258308 27.06358814 C27.40709338 27.06052533 25.12160683 27.05350854 22.83613777 27.04332447 C19.36594755 27.02863981 15.89595412 27.02666514 12.42573738 27.02742481 C11.41463402 27.0202286 10.40353065 27.01303238 9.3617878 27.0056181 C-0.27617374 27.03377455 -8.30079938 28.64152839 -15.67191887 35.25447559 Z M140.32808113 27.25447559 C140.32808113 71.47447559 140.32808113 115.69447559 140.32808113 161.25447559 C184.54808113 161.25447559 228.76808113 161.25447559 274.32808113 161.25447559 C274.32808113 117.03447559 274.32808113 72.81447559 274.32808113 27.25447559 C230.10808113 27.25447559 185.88808113 27.25447559 140.32808113 27.25447559 Z M302.32808113 27.25447559 C302.32808113 71.47447559 302.32808113 115.69447559 302.32808113 161.25447559 C346.54808113 161.25447559 390.76808113 161.25447559 436.32808113 161.25447559 C436.36933113 143.10447559 436.41058113 124.95447559 436.45308113 106.25447559 C436.47128914 100.53232716 436.48949715 94.81017872 436.50825691 88.91463184 C436.51494749 83.7668059 436.51494749 83.7668059 436.51896858 78.61897755 C436.52203139 76.33348785 436.52904819 74.0480013 436.53923225 71.76253223 C436.55391692 68.29234201 436.55589158 64.82234858 436.55513191 61.35213184 C436.56592624 59.8354768 436.56592624 59.8354768 436.57693863 58.28818226 C436.5510615 49.43043623 435.41525742 41.10431434 429.32808113 34.25447559 C420.69911219 27.6134828 413.00120502 27.10369449 402.45747566 27.1409502 C400.80601193 27.1407694 400.80601193 27.1407694 399.1211853 27.14058495 C395.56773399 27.14132958 392.01433553 27.14893739 388.46089363 27.15681934 C386.26289584 27.15829015 384.0648977 27.15931001 381.86689949 27.1598711 C373.72895469 27.16510787 365.59101739 27.17906911 357.45308113 27.19197559 C330.16620613 27.22291309 330.16620613 27.22291309 302.32808113 27.25447559 Z M-21.67191887 189.25447559 C-21.67191887 233.47447559 -21.67191887 277.69447559 -21.67191887 323.25447559 C22.54808113 323.25447559 66.76808113 323.25447559 112.32808113 323.25447559 C112.32808113 279.03447559 112.32808113 234.81447559 112.32808113 189.25447559 C68.10808113 189.25447559 23.88808113 189.25447559 -21.67191887 189.25447559 Z " fill="#000100" transform="translate(48.671918869018555,-0.25447559356689453)"/>
<path d="M0 0 C44.55 0 89.1 0 135 0 C135 44.55 135 89.1 135 135 C115.86 135.0825 96.72 135.165 77 135.25 C67.94691406 135.30462402 67.94691406 135.30462402 58.7109375 135.36035156 C51.3203125 135.37841797 51.3203125 135.37841797 47.85644531 135.3817749 C45.44593348 135.38790261 43.03543363 135.40194067 40.625 135.42230225 C36.96593035 135.45165655 33.30760757 135.45562155 29.6484375 135.45410156 C28.58112396 135.468494 27.51381042 135.48288643 26.41415405 135.497715 C18.50982081 135.45387348 13.24922603 133.80614975 7.25 128.625 C2.31828735 122.87133524 -0.12841127 118.65201069 -0.12025452 111.11517334 C-0.12163201 110.13566586 -0.12300951 109.15615837 -0.12442875 108.14696884 C-0.12083064 107.07463123 -0.11723253 106.00229362 -0.11352539 104.89746094 C-0.11364593 103.74716526 -0.11376646 102.59686958 -0.11389065 101.41171646 C-0.11314389 97.68591635 -0.10552636 93.96016617 -0.09765625 90.234375 C-0.0961861 87.93505884 -0.09516584 85.63574234 -0.09460449 83.33642578 C-0.08936009 74.80761209 -0.07539891 66.27880555 -0.0625 57.75 C-0.041875 38.6925 -0.02125 19.635 0 0 Z " fill="#7AB576" transform="translate(27,350)"/>
<path d="M0 0 C44.55 0 89.1 0 135 0 C135.061875 18.975 135.12375 37.95 135.1875 57.5 C135.21481201 63.48318359 135.24212402 69.46636719 135.27026367 75.63085938 C135.28381348 82.95800781 135.28381348 82.95800781 135.28633118 86.39221191 C135.29092669 88.78187741 135.30145463 91.17153611 135.31672668 93.56115723 C135.3387438 97.1886802 135.34171605 100.81577942 135.34057617 104.44335938 C135.3513705 105.50130455 135.36216482 106.55924973 135.37328625 107.64925385 C135.33874969 115.88136415 134.06313317 122.93686683 128 129 C122.44012934 133.04666875 118.05048788 135.12776027 111.11517334 135.12025452 C110.13566586 135.12163201 109.15615837 135.12300951 108.14696884 135.12442875 C107.07463123 135.12083064 106.00229362 135.11723253 104.89746094 135.11352539 C103.17201742 135.11370619 103.17201742 135.11370619 101.41171646 135.11389065 C97.68591635 135.11314389 93.96016617 135.10552636 90.234375 135.09765625 C87.93505884 135.0961861 85.63574234 135.09516584 83.33642578 135.09460449 C74.80761209 135.08936009 66.27880555 135.07539891 57.75 135.0625 C38.6925 135.041875 19.635 135.02125 0 135 C0 90.45 0 45.9 0 0 Z " fill="#7AB576" transform="translate(350,350)"/>
<path d="M0 0 C44.22 0 88.44 0 134 0 C134 44.55 134 89.1 134 135 C89.78 135 45.56 135 0 135 C0 90.45 0 45.9 0 0 Z " fill="#7AB576" transform="translate(189,350)"/>
<path d="M0 0 C44.55 0 89.1 0 135 0 C135 44.22 135 88.44 135 134 C90.45 134 45.9 134 0 134 C0 89.78 0 45.56 0 0 Z " fill="#7AB576" transform="translate(350,189)"/>
<path d="M0 0 C44.22 0 88.44 0 134 0 C134 44.22 134 88.44 134 134 C89.78 134 45.56 134 0 134 C0 89.78 0 45.56 0 0 Z " fill="#DABC45" transform="translate(189,189)"/>
</svg>
